<?xml version="1.0" standalone="no"?>
<!DOCTYPE svg PUBLIC "-//W3C//DTD SVG 20010904//EN"
 "http://www.w3.org/TR/2001/REC-SVG-20010904/DTD/svg10.dtd">
<svg version="1.0" xmlns="http://www.w3.org/2000/svg"
 width="854.000000pt" height="854.000000pt" viewBox="0 0 854.000000 854.000000"
 preserveAspectRatio="xMidYMid meet">
<metadata>
Created by potrace 1.11, written by Peter Selinger 2001-2013
</metadata>
<g transform="translate(0.000000,854.000000) scale(0.100000,-0.100000)"
fill="#000000" stroke="none">
<path d="M1825 6440 c-52 -21 -95 -90 -95 -151 0 -83 92 -164 173 -153 86 10
138 63 145 148 8 95 -59 167 -154 165 -27 0 -58 -4 -69 -9z"/>
<path d="M2922 6313 c-158 -32 -256 -131 -261 -262 -4 -112 85 -216 215 -250
150 -40 184 -53 203 -77 25 -31 21 -87 -8 -118 -41 -43 -146 -59 -200 -31 -29
14 -75 88 -63 99 3 4 -50 5 -119 4 l-124 -3 3 -40 c9 -145 78 -232 199 -251
21 -3 41 -8 45 -10 4 -3 50 -5 103 -5 168 0 302 48 387 139 85 91 111 197 69
287 -38 84 -98 121 -276 170 -179 50 -216 85 -152 143 69 62 206 44 247 -33
13 -24 16 -25 122 -25 l108 0 0 38 c-1 104 -98 202 -225 227 -66 13 -206 13
-273 -2z"/>
<path d="M2128 6303 c-2 -5 -5 -24 -7 -43 -6 -75 -62 -147 -141 -182 -65 -29
-159 -20 -218 22 -23 16 -44 30 -46 30 -2 0 -6 -19 -10 -42 -3 -24 -13 -81
-21 -128 -9 -47 -18 -96 -20 -110 -2 -14 -7 -36 -10 -50 -3 -14 -16 -88 -30
-165 -13 -77 -26 -149 -28 -160 -20 -94 -20 -95 10 -96 73 -2 295 0 298 3 3 2
49 255 70 378 3 19 8 42 10 50 2 8 7 36 10 61 3 25 12 67 19 94 l12 49 77 0
c46 1 77 -3 77 -9 0 -5 -6 -41 -14 -80 -8 -38 -17 -83 -19 -100 -20 -123 -78
-428 -82 -435 -4 -6 16 -10 47 -11 114 -1 195 -1 234 0 l41 1 13 78 c7 42 14
86 16 97 12 55 23 114 28 150 4 23 9 52 12 65 7 37 24 129 30 175 10 66 15 71
83 69 l61 -1 0 41 c1 86 48 169 125 222 l50 34 -337 0 c-185 0 -338 -3 -340
-7z"/>
<path d="M455 6160 c-5 -7 -4 -2 -44 -230 -18 -96 -41 -224 -53 -285 -11 -60
-22 -126 -25 -145 -2 -19 -9 -52 -14 -74 -6 -21 -8 -40 -5 -43 4 -4 1021 -7
1093 -4 12 1 18 23 29 96 3 22 7 47 9 55 3 8 14 67 25 130 20 117 21 124 35
195 4 22 9 49 10 61 2 11 8 46 15 77 6 32 13 70 15 85 2 15 6 41 9 58 l6 30
-551 0 c-302 0 -552 -3 -554 -6z"/>
<path d="M3655 6145 c-3 -11 -11 -58 -19 -105 -9 -47 -18 -98 -21 -115 -12
-67 -55 -302 -60 -335 -3 -19 -13 -72 -21 -118 -9 -46 -14 -85 -11 -88 3 -3
366 -6 806 -6 585 0 801 -3 804 -12 2 -6 3 -53 2 -103 -1 -92 -1 -93 18 -75
19 16 85 85 162 167 20 22 97 103 170 180 72 77 149 158 169 180 21 22 110
116 199 209 89 93 167 174 172 181 6 6 20 22 32 36 l23 25 -1211 0 -1210 0 -4
-21z"/>
<path d="M6585 6122 c-16 -2 -67 -21 -111 -42 -214 -103 -313 -353 -228 -574
3 -8 -23 -29 -68 -56 -94 -56 -449 -290 -556 -367 l-84 -60 -104 44 c-202 86
-378 118 -639 117 -154 -1 -303 -28 -438 -80 -91 -35 -203 -92 -246 -125 -23
-19 -24 -19 -55 0 -177 108 -374 173 -601 197 -118 13 -323 8 -425 -10 -300
-53 -563 -210 -682 -407 -79 -130 -117 -343 -89 -491 50 -259 304 -479 690
-598 57 -17 115 -38 128 -47 30 -20 30 -58 1 -75 -52 -28 -253 -2 -366 48
-147 65 -206 105 -310 213 -38 39 -66 61 -70 55 -4 -6 -19 -26 -34 -45 -14
-19 -62 -79 -105 -134 -43 -55 -85 -109 -95 -120 -44 -52 -59 -69 -54 -59 4 9
65 326 81 424 3 19 14 82 25 140 11 58 22 121 25 140 3 19 8 42 10 50 2 8 6
31 9 50 7 42 43 247 49 275 3 11 8 40 12 65 4 25 9 54 11 65 8 39 44 241 49
275 3 19 10 53 15 74 5 22 7 43 4 47 -6 10 -804 11 -805 1 -1 -4 -2 -18 -4
-32 -1 -14 -10 -63 -19 -110 -8 -47 -18 -98 -21 -115 -2 -16 -7 -39 -9 -50 -5
-28 -34 -183 -40 -220 -3 -16 -22 -118 -41 -225 -37 -204 -40 -223 -50 -280
-3 -19 -8 -42 -10 -50 -2 -8 -7 -35 -10 -60 -3 -25 -8 -52 -10 -60 -2 -8 -6
-32 -9 -52 -22 -147 -50 -196 -135 -233 -100 -44 -225 -32 -289 28 -52 48 -59
84 -37 187 3 14 10 52 15 85 5 33 12 69 14 80 2 11 7 40 11 65 4 25 9 54 12
65 2 11 10 56 18 100 7 44 20 118 29 165 9 47 18 101 21 120 3 19 10 58 15 85
12 65 19 102 26 145 8 49 53 310 60 342 l5 27 -402 -2 -403 -2 -7 -27 c-4 -15
-10 -45 -13 -65 -3 -21 -7 -47 -10 -58 -7 -33 -35 -187 -41 -225 -3 -19 -10
-57 -15 -85 -11 -56 -18 -94 -26 -144 -3 -18 -8 -43 -10 -55 -2 -11 -11 -59
-19 -106 -8 -47 -17 -94 -19 -105 -2 -11 -7 -40 -12 -65 -4 -25 -8 -47 -9 -50
0 -3 -4 -27 -9 -53 -4 -27 -9 -59 -12 -70 -30 -149 -56 -313 -58 -357 -5 -151
60 -297 193 -431 288 -291 747 -387 1201 -253 161 48 339 143 445 237 22 20
44 32 50 29 188 -125 246 -161 325 -201 52 -26 109 -53 125 -59 109 -41 150
-55 230 -77 50 -13 110 -26 135 -30 24 -4 47 -8 50 -10 13 -8 166 -18 270 -17
129 1 293 24 377 53 31 10 58 18 59 16 2 -2 -10 -31 -26 -65 -142 -301 -119
-556 59 -647 173 -87 376 -108 671 -70 178 23 515 126 771 235 162 70 449 211
583 289 49 28 90 51 92 51 2 0 28 16 58 35 30 19 57 35 60 35 3 0 82 50 177
110 95 61 176 110 180 110 3 0 35 -13 70 -29 68 -31 184 -69 234 -77 17 -2 53
-8 80 -12 58 -10 257 -8 328 2 205 29 445 148 604 299 301 286 423 698 327
1100 -19 81 -32 57 125 229 240 263 431 527 552 763 101 199 134 321 127 474
-5 110 -28 168 -96 238 -60 63 -186 112 -340 132 -94 12 -297 4 -387 -14 -11
-3 -36 -7 -55 -9 -110 -16 -426 -111 -556 -166 l-43 -19 -21 34 c-44 70 -166
156 -257 180 -32 8 -154 13 -198 7z m1475 -350 c104 -29 141 -46 171 -79 69
-74 88 -128 84 -241 -4 -114 -40 -217 -137 -392 -73 -133 -279 -397 -440 -565
l-57 -60 -22 50 c-25 56 -93 171 -115 192 -8 8 -14 18 -14 22 0 18 -170 180
-240 230 -235 166 -502 236 -787 207 -40 -4 -75 -7 -78 -7 -15 0 -178 -50
-225 -68 -280 -112 -524 -356 -634 -635 -34 -84 -76 -265 -76 -325 l0 -44 -49
46 c-96 90 -217 158 -401 227 -164 61 -160 55 -78 119 69 53 70 53 108 42 21
-6 95 -49 164 -96 l124 -84 209 266 c114 147 209 270 211 274 2 4 -24 27 -57
50 -53 38 -58 44 -43 54 52 36 255 158 377 227 77 43 147 83 155 88 52 32 146
71 156 64 112 -85 196 -114 314 -110 100 4 114 7 185 41 138 65 255 233 255
367 l0 37 80 25 c80 26 272 72 333 81 17 3 57 8 87 11 30 3 57 7 58 9 2 2 72
2 155 1 117 -2 169 -8 227 -24z m-4569 -1272 c103 -34 310 -174 316 -212 2
-13 5 -30 7 -38 15 -66 20 -81 27 -86 5 -3 9 -9 9 -15 0 -5 -23 7 -52 27 -88
60 -168 101 -283 144 -206 77 -272 119 -263 167 9 48 117 54 239 13z m1370
-10 c-44 -40 -61 -43 -61 -11 0 24 34 46 74 49 l31 2 -44 -40z m-758 -629 c26
-19 47 -37 47 -41 0 -7 -69 -86 -71 -80 0 3 -2 13 -4 24 -12 63 -29 123 -39
135 -14 18 -1 11 67 -38z m183 -111 c60 -28 135 -54 266 -96 76 -24 109 -51
98 -81 -29 -73 -269 -40 -477 65 -29 14 -53 30 -53 35 0 8 90 107 98 107 2 0
33 -13 68 -30z m1406 -402 c48 -71 173 -205 223 -239 19 -13 35 -27 35 -30 0
-3 -87 -55 -192 -115 -376 -216 -771 -394 -1067 -483 -116 -35 -166 -47 -316
-76 -16 -4 -88 -9 -160 -12 -167 -7 -268 11 -380 67 -161 80 -225 181 -219
340 4 119 32 196 81 228 33 22 33 22 71 3 117 -60 344 -140 442 -156 19 -3 53
-10 75 -15 102 -22 282 -28 428 -16 294 26 550 151 723 354 61 71 130 190 154
265 l12 37 24 -46 c13 -25 43 -73 66 -106z"/>
</g>
</svg>
